<?xml version="1.0" encoding="UTF-8" standalone="no"?>
<svg
   xmlns:dc="http://purl.org/dc/elements/1.1/"
   xmlns:cc="http://creativecommons.org/ns#"
   xmlns:rdf="http://www.w3.org/1999/02/22-rdf-syntax-ns#"
   xmlns:svg="http://www.w3.org/2000/svg"
   xmlns="http://www.w3.org/2000/svg"
   xmlns:sodipodi="http://sodipodi.sourceforge.net/DTD/sodipodi-0.dtd"
   xmlns:inkscape="http://www.inkscape.org/namespaces/inkscape"
   width="400"
   height="255"
   version="1"
   viewBox="0 0 4000 2550"
   id="svg12"
   sodipodi:docname="default.svg"
   inkscape:version="1.0.1 (3bc2e813f5, 2020-09-07)">
  <metadata
     id="metadata18">
    <rdf:RDF>
      <cc:Work
         rdf:about="">
        <dc:format>image/svg+xml</dc:format>
        <dc:type
           rdf:resource="http://purl.org/dc/dcmitype/StillImage" />
      </cc:Work>
    </rdf:RDF>
  </metadata>
  <defs
     id="defs16" />
  <sodipodi:namedview
     pagecolor="#ffffff"
     bordercolor="#666666"
     borderopacity="1"
     objecttolerance="10"
     gridtolerance="10"
     guidetolerance="10"
     inkscape:pageopacity="0"
     inkscape:pageshadow="2"
     inkscape:window-width="1920"
     inkscape:window-height="1027"
     id="namedview14"
     showgrid="false"
     inkscape:zoom="2.605"
     inkscape:cx="200"
     inkscape:cy="127.5"
     inkscape:window-x="-8"
     inkscape:window-y="-8"
     inkscape:window-maximized="1"
     inkscape:current-layer="svg12" />
  <path
     fill="#e1e1e2"
     stroke="none"
     d="M0 1275V0h4000v2550H0V1275z"
     id="path2" />
  <g
     fill="#f4f4f5"
     stroke="none"
     id="g10"
     transform="scale(1.0153551,1.015054)">
    <path
       d="M 0,1275 V 0 H 4000 V 2550 H 0 Z m 2932,768 c 2,-5 2,-245 0,-535 l -3,-528 h -193 c -143,0 -196,-3 -203,-12 -5,-7 -31,-85 -57,-173 -67,-223 -97,-319 -107,-329 -5,-5 -60,7 -131,28 -68,21 -152,47 -188,58 -36,10 -92,28 -125,38 -33,10 -105,32 -160,48 -90,27 -658,203 -695,215 -8,3 -22,7 -32,10 -18,6 -12,28 121,462 34,110 73,238 87,285 54,182 87,280 93,280 3,0 42,-11 86,-25 44,-14 83,-25 88,-25 4,0 7,47 7,105 v 105 h 704 c 388,0 706,-3 708,-7 z"
       id="path4" />
    <path
       d="m 1660,1515 v -395 h 1140 l -2,393 -3,392 -567,3 -568,2 z m 1000,267 c 0,-5 -28,-51 -62,-103 -35,-52 -88,-135 -118,-183 -30,-49 -68,-104 -85,-122 l -30,-34 -85,120 -84,120 -47,-46 c -40,-39 -48,-43 -60,-31 -8,8 -46,50 -85,93 -62,69 -93,105 -153,177 -13,16 7,17 397,17 227,0 412,-4 412,-8 z m -636,-383 c 25,-28 28,-38 23,-78 -7,-60 -41,-91 -100,-91 -64,1 -107,44 -107,110 0,23 10,42 35,67 32,32 39,35 78,30 30,-4 50,-15 71,-38 z"
       id="path6" />
    <path
       d="m 1425,1700 c -7,-11 -52,-148 -80,-245 -9,-33 -23,-78 -31,-100 -7,-22 -26,-85 -43,-140 -16,-55 -39,-133 -51,-173 -12,-41 -18,-77 -14,-81 5,-5 86,-31 179,-59 211,-63 680,-206 760,-232 33,-10 77,-23 97,-29 l 37,-9 31,101 c 17,56 37,118 44,137 8,19 16,52 20,73 l 7,37 h -861 v 709 l -37,10 c -47,13 -50,13 -58,1 z"
       id="path8" />
  </g>
</svg>
