<svg xmlns="http://www.w3.org/2000/svg" width="14.985" height="10" viewBox="0 0 14.985 10">
  <path id="Path_95" data-name="Path 95" d="M334.559,413.859c-.23-.316-.424-.661-.684-.952a8.411,8.411,0,0,0-8.912-2.565,7.122,7.122,0,0,0-4.6,3.388,2.113,2.113,0,0,0,.055,2.446A8.2,8.2,0,0,0,327.852,420c.285-.021.572-.036.858-.065.18-.019.356-.049.536-.078a7.544,7.544,0,0,0,5.331-3.52A2.049,2.049,0,0,0,334.559,413.859Zm-7.061,4.1a2.951,2.951,0,1,1,2.962-2.912A2.964,2.964,0,0,1,327.5,417.957Z" transform="translate(-320 -410)" fill="#585959" fill-rule="evenodd"/>
</svg>
