<svg xmlns="http://www.w3.org/2000/svg" width="24.998" height="25" viewBox="0 0 24.998 25"><g transform="translate(-320 -435)"><path d="M345,447.487a12.478,12.478,0,0,1-11.419,12.451,6.071,6.071,0,0,1-1.059.062,12.154,12.154,0,0,1-2.718-.292A12.5,12.5,0,1,1,345,447.487Z" fill="#1a1a1a"/><path d="M333.935,444.875a1.454,1.454,0,0,1,1.131-.39,6.513,6.513,0,0,1,1.706.233l.49-2.621a9.125,9.125,0,0,0-3.1-.455,5.067,5.067,0,0,0-2.579.553,2.913,2.913,0,0,0-1.388,1.423,6.684,6.684,0,0,0-.392,2.638v1.037h-2.059v3H329.8v9.414a12.154,12.154,0,0,0,2.718.292,6.071,6.071,0,0,0,1.059-.062v-9.644h2.739v-3h-2.739v-.973A2.01,2.01,0,0,1,333.935,444.875Z" fill="#fff"/></g></svg>