<svg xmlns="http://www.w3.org/2000/svg" width="24.998" height="24.999" viewBox="0 0 24.998 24.999"><g transform="translate(-360 -435)"><path d="M385,447.5A12.5,12.5,0,1,1,372.5,435,12.5,12.5,0,0,1,385,447.5Z" fill="#1a1a1a" fill-rule="evenodd"/><path d="M377.47,440.758h-9.938a1.6,1.6,0,0,0-1.794,1.806v9.921a1.587,1.587,0,0,0,1.735,1.77h10a1.61,1.61,0,0,0,1.789-1.787v-9.94A1.6,1.6,0,0,0,377.47,440.758Zm-1.094,1.525c1.34,0,1.34,0,1.34,1.341,0,1.311,0,1.311-1.317,1.311s-1.329,0-1.329-1.329S375.07,442.283,376.376,442.283Zm-3.868,2.605a2.612,2.612,0,1,1-2.633,2.587A2.669,2.669,0,0,1,372.508,444.888Zm5.208,7.024c-.012.631-.175.811-.8.811h-8.834c-.615,0-.791-.18-.791-.811,0-1.624.006-3.278-.023-4.921,0-.46.127-.571.561-.552.617.045.627.02.558.621a4.139,4.139,0,1,0,8.181-.32c-.049-.238.01-.281.22-.281.932-.068.932-.085.932.875Z" fill="#fbfbfb" fill-rule="evenodd"/></g></svg>