<svg xmlns="http://www.w3.org/2000/svg" width="24.999" height="25" viewBox="0 0 24.999 25"><g transform="translate(-440 -435)"><g fill="none" stroke-miterlimit="10"><path d="M465,447.495A12.5,12.5,0,1,1,452.5,435,12.5,12.5,0,0,1,465,447.495Z" stroke="none"/><path d="M 452.4989929199219 436 C 449.4258422851562 436 446.5376586914062 437.195556640625 444.3664245605469 439.3664245605469 C 442.195556640625 441.5369262695312 441 444.4237060546875 441 447.4949951171875 C 441 450.5714416503906 442.1956176757812 453.461669921875 444.3665771484375 455.6332397460938 C 446.5370788574219 457.8043212890625 449.4252014160156 459 452.4989929199219 459 C 455.5688781738281 459 458.4558410644531 457.8042297363281 460.6280517578125 455.6329956054688 C 462.8018188476562 453.4601745605469 463.9989929199219 450.5700378417969 463.9989929199219 447.4949951171875 C 463.9989929199219 441.1566467285156 458.8401184082031 436 452.4989929199219 436 M 452.4989929199219 435 C 459.3949890136719 435 464.9989929199219 440.5929870605469 464.9989929199219 447.4949951171875 C 464.9989929199219 454.4089965820312 459.3949890136719 460 452.4989929199219 460 C 445.5920104980469 460 440 454.4089965820312 440 447.4949951171875 C 440 440.5929870605469 445.5920104980469 435 452.4989929199219 435 Z" stroke="none" fill="#1a1a1a"/></g><path d="M454.6,446.493a3.672,3.672,0,0,1-.8.64,1.168,1.168,0,0,1-.916.031,1.665,1.665,0,0,0-2.494.212c-.6.585-1.2,1.167-1.78,1.774a1.637,1.637,0,0,0-.135,2.375,1.573,1.573,0,0,0,2.357-.129,1.289,1.289,0,0,1,1.64-.409,4.841,4.841,0,0,0,1.371.108c-1.167.956-1.869,2.234-3.31,2.631a3.466,3.466,0,0,1-3.848-1.453,3.381,3.381,0,0,1,.3-4.1,31.632,31.632,0,0,1,2.532-2.529A3.358,3.358,0,0,1,454.6,446.493Z" fill="#1a1a1a" fill-rule="evenodd"/><path d="M451.178,443.914c1.207-1.013,1.946-2.345,3.491-2.687a3.473,3.473,0,0,1,3.676,1.549,3.317,3.317,0,0,1-.338,4.017c-.79.857-1.589,1.715-2.451,2.5a3.4,3.4,0,0,1-5.222-.818,6.2,6.2,0,0,0,.72-.508.789.789,0,0,1,1.193-.076,1.509,1.509,0,0,0,2.24-.135c.663-.628,1.315-1.271,1.938-1.937a1.61,1.61,0,0,0,.069-2.37,1.581,1.581,0,0,0-2.3.142,1.265,1.265,0,0,1-1.627.439A4.73,4.73,0,0,0,451.178,443.914Z" fill="#1a1a1a" fill-rule="evenodd"/></g></svg>