<svg xmlns="http://www.w3.org/2000/svg" width="12.737" height="11.26" viewBox="0 0 12.737 11.26"><defs><style>.a{fill:#585959;fill-rule:evenodd;}</style></defs><g transform="translate(-420.263 -408.472)"><path class="a" d="M420.263,414a.65.65,0,0,1,.724-.469c1.148.008,2.3,0,3.443.005.115,0,.228.043.339.05a.212.212,0,0,0,.16-.053,5.77,5.77,0,0,0,.545-.69c.395-.643.769-1.3,1.144-1.949a.506.506,0,0,0,.056-.246c0-.428,0-.855-.027-1.281a.742.742,0,0,1,.524-.793,1.348,1.348,0,0,1,1.251.106.559.559,0,0,1,.21.219,5.451,5.451,0,0,1,.64,1.971,3.221,3.221,0,0,1-.067.7c-.052.368-.118.734-.183,1.123h.165l2.674,0a1.217,1.217,0,0,1,.668.15,1.056,1.056,0,0,1,.422,1.213,3.359,3.359,0,0,1-.26.515.188.188,0,0,0-.025.129,1.276,1.276,0,0,1-.209,1.286.173.173,0,0,0-.034.137,1.251,1.251,0,0,1-.194,1.254.221.221,0,0,0-.036.219,1.3,1.3,0,0,1-1.02,1.706,3.48,3.48,0,0,1-.629.057c-1.571,0-3.141,0-4.713.006a1.622,1.622,0,0,1-.891-.255,1.793,1.793,0,0,0-.273-.115c0,.1,0,.168,0,.232a.52.52,0,0,1-.48.5.163.163,0,0,1-.038,0c-1.123,0-2.246,0-3.368,0a.542.542,0,0,1-.518-.427Zm8.112-.769a.275.275,0,0,1,0-.061c.093-.533.192-1.067.28-1.6a2.921,2.921,0,0,0,.069-.712,4.948,4.948,0,0,0-.552-1.675.179.179,0,0,0-.058-.078.829.829,0,0,0-.86.038.237.237,0,0,0-.074.165c0,.461.011.919.027,1.38a.88.88,0,0,1-.1.427,19.787,19.787,0,0,1-1.437,2.367,2.579,2.579,0,0,1-.78.735c-.1.063-.2.136-.3.194a.175.175,0,0,0-.1.18q0,1.848,0,3.693v.139a.991.991,0,0,1,.746.245.488.488,0,0,0,.14.075,1.2,1.2,0,0,0,.336.081q2.493,0,4.986,0a1.025,1.025,0,0,0,.612-.169.7.7,0,0,0,.329-.643.457.457,0,0,0-.383-.443c-.016-.086.009-.125.094-.148a.783.783,0,0,0,.587-.639.507.507,0,0,0-.255-.559c-.061-.033-.125-.057-.228-.1.063-.052.1-.1.149-.119a.818.818,0,0,0,.584-.635.493.493,0,0,0-.233-.544,2.416,2.416,0,0,0-.218-.106.136.136,0,0,1,.121-.151.879.879,0,0,0,.273-.138.794.794,0,0,0,.28-.842c-.086-.25-.277-.35-.672-.35h-3.369Zm-4.362,5.96v-5.113h-3.2V419.2Z"/></g></svg>