<svg xmlns="http://www.w3.org/2000/svg" width="24.998" height="25" viewBox="0 0 24.998 25"><g transform="translate(-400 -434.999)"><path d="M425,447.5A12.5,12.5,0,1,1,412.5,435,12.5,12.5,0,0,1,425,447.5Z" fill="#1a1a1a" fill-rule="evenodd"/><path d="M409.355,451.738c.035.034.077.065.114.1.017.032.03.071.076.034l.014.005c-.059.093.024.132.075.178a2.123,2.123,0,0,0,2.384.35,2.082,2.082,0,0,0,1.192-1.988c0-3.221,0-6.442-.007-9.661,0-.23.067-.293.289-.288.511.01,1.019-.007,1.529-.011a.073.073,0,0,1,.033.019,3.147,3.147,0,0,0,.792,1.677,1.309,1.309,0,0,0,.525.452v0c-.01.047.016.058.056.056l0,0a.178.178,0,0,0,.147.116c.06.051.119.1.177.151.021.049.048.09.112.069h-.005c-.013.089.062.126.114.168a3.394,3.394,0,0,0,1.52.738.06.06,0,0,1,.017.019c0,.564-.017,1.132,0,1.694.006.245-.082.281-.3.267a6.167,6.167,0,0,1-2.979-.965c-.063-.041-.117-.12-.23-.1v.294c0,1.6.008,3.2,0,4.807a4.64,4.64,0,0,1-6.689,4.138c-.077-.037-.143-.118-.247-.082h0c0-.062-.038-.063-.084-.058-.12-.1-.24-.2-.358-.3-.005-.042-.026-.065-.068-.063v0c0-.045-.011-.069-.058-.041l-.009-.009c.044-.1-.043-.15-.087-.211a4.615,4.615,0,0,1,.778-6.388,4.175,4.175,0,0,1,2.813-1.015v1.95a2.489,2.489,0,0,0-1.064-.046,2.147,2.147,0,0,0-1.686,1.847A2.086,2.086,0,0,0,409.355,451.738Z" fill="#fcfbfc" fill-rule="evenodd"/><path d="M408.06,453.971c.1-.036.17.045.247.082A4.64,4.64,0,0,0,415,449.915c.01-1.6,0-3.205,0-4.807v-.294c.113-.021.167.058.23.1a6.167,6.167,0,0,0,2.979.965c.215.014.3-.022.3-.267-.016-.562,0-1.13,0-1.694.722.049.722.049.722.769,0,.518-.009,1.037.006,1.557.008.213-.066.258-.266.246a6.044,6.044,0,0,1-2.934-.916l-.263-.17c-.071.092-.039.193-.039.287,0,1.582,0,3.168,0,4.752a4.6,4.6,0,0,1-3.973,4.651,4.461,4.461,0,0,1-3.6-1C408.115,454.061,408.06,454.034,408.06,453.971Z" fill="#e0472d" fill-rule="evenodd"/><path d="M415.021,440.456c-.51,0-1.018.021-1.529.011-.222-.005-.289.058-.289.288.01,3.219.005,6.44.007,9.661a2.082,2.082,0,0,1-1.192,1.988,2.123,2.123,0,0,1-2.384-.35c-.051-.046-.134-.085-.075-.178a2.868,2.868,0,0,0,1.075.113,2.133,2.133,0,0,0,1.843-2.165q.006-4.482,0-8.959c0-.281.005-.565,0-.847,0-.133.046-.17.173-.17q1.092.008,2.184,0c.13,0,.178.039.175.172A3.542,3.542,0,0,0,415.021,440.456Z" fill="#69c7ce" fill-rule="evenodd"/><path d="M410.99,445.89a4.175,4.175,0,0,0-2.813,1.015,4.615,4.615,0,0,0-.778,6.388c.044.061.131.11.087.211a4.174,4.174,0,0,1-1.524-2.14,4.65,4.65,0,0,1,4.367-6.125c.645,0,.645,0,.682.607C411.005,445.861,411,445.875,410.99,445.89Z" fill="#69c7ce" fill-rule="evenodd"/><path d="M410.99,445.89c.006-.015.015-.029.021-.044.72.018.72.018.72.729,0,.563-.006,1.129,0,1.691,0,.129,0,.193-.179.159a2.027,2.027,0,0,0-2.214.88,2.052,2.052,0,0,0-.023,2.361c.017.024.027.05.04.072a2.086,2.086,0,0,1-1.115-2.1,2.147,2.147,0,0,1,1.686-1.847,2.489,2.489,0,0,1,1.064.046Z" fill="#e0472d" fill-rule="evenodd"/><path d="M416.371,442.6a1.309,1.309,0,0,1-.525-.452,3.147,3.147,0,0,1-.792-1.677c.207,0,.455-.069.612.021s.063.362.1.552a3.727,3.727,0,0,0,.522,1.329C416.325,442.445,416.433,442.494,416.371,442.6Z" fill="#e0472d" fill-rule="evenodd"/><path d="M418.488,443.9a3.394,3.394,0,0,1-1.52-.738c-.052-.042-.127-.079-.114-.168a4.557,4.557,0,0,0,1.546.374c.084,0,.1.055.1.127C418.5,443.627,418.491,443.763,418.488,443.9Z" fill="#69c7ce" fill-rule="evenodd"/><path d="M416.57,442.772a.178.178,0,0,1-.147-.116C416.519,442.638,416.531,442.72,416.57,442.772Z" fill="#e0472d" fill-rule="evenodd"/><path d="M416.859,442.992c-.064.021-.091-.02-.112-.069C416.8,442.927,416.842,442.933,416.859,442.992Z" fill="#69c7ce" fill-rule="evenodd"/><path d="M416.426,442.658c-.04,0-.066-.009-.056-.056C416.433,442.573,416.435,442.607,416.426,442.658Z" fill="#e0472d" fill-rule="evenodd"/><path d="M409.545,451.871c-.046.037-.059,0-.076-.034C409.5,451.833,409.531,451.835,409.545,451.871Z" fill="#69c7ce" fill-rule="evenodd"/><path d="M408.233,450.985c.039-.022.048,0,.047.033C408.252,451.024,408.238,451.012,408.233,450.985Z" fill="#69c7ce" fill-rule="evenodd"/><path d="M408.28,451.016c.036,0,.052.018.054.05C408.307,451.06,408.281,451.05,408.28,451.016Z" fill="#69c7ce" fill-rule="evenodd"/><path d="M408.628,451.312c.035-.005.069,0,.069.046A.059.059,0,0,1,408.628,451.312Z" fill="#e0472d" fill-rule="evenodd"/></g></svg>